HIERARCHY
ROOT hips
{
  OFFSET 0 10.6860622 2.3727825e-15
  CHANNELS 6 Xposition Yposition Zposition Yrotation Xrotation Zrotation
  JOINT leftUpperLeg
  {
    OFFSET 0.6642549969 -0.9402397400000004 0
    CHANNELS 3 Yrotation Xrotation Zrotation
    JOINT leftLowerLeg
    {
      OFFSET 0 -3.997221335632195 0
      CHANNELS 3 Yrotation Xrotation Zrotation
      JOINT leftFoot
      {
        OFFSET -0.13777839790000004 -4.6145792000000005 -0.22186036399999998
        CHANNELS 3 Yrotation Xrotation Zrotation
        JOINT leftToes
        {
          OFFSET -0.03777410834999995 -0.9130806927000008 0.85230013
          CHANNELS 3 Yrotation Xrotation Zrotation
          End Site
          {
            OFFSET -0.03777410834999995 -0.9130806927000008 0.85230013
          }
        }
      }
    }
  }
  JOINT rightUpperLeg
  {
    OFFSET -0.6642778626 -0.9402397400000004 0
    CHANNELS 3 Yrotation Xrotation Zrotation
    JOINT rightLowerLeg
    {
      OFFSET 0 -3.997221452859387 0
      CHANNELS 3 Yrotation Xrotation Zrotation
      JOINT rightFoot
      {
        OFFSET 0.1377926176 -4.6145792000000005 -0.22185782299999995
        CHANNELS 3 Yrotation Xrotation Zrotation
        JOINT rightToes
        {
          OFFSET 0.037780746850000047 -0.9130806927000008 0.85230167
          CHANNELS 3 Yrotation Xrotation Zrotation
          End Site
          {
            OFFSET 0.037780746850000047 -0.9130806927000008 0.85230167
          }
        }
      }
    }
  }
  JOINT spine
  {
    OFFSET 0 0.13988381660000015 0
    CHANNELS 3 Yrotation Xrotation Zrotation
    JOINT chest
    {
      OFFSET 0 0.6191039003973773 0
      CHANNELS 3 Yrotation Xrotation Zrotation
      JOINT upperChest
      {
        OFFSET 0 0.9855186130586943 0
        CHANNELS 3 Yrotation Xrotation Zrotation
        JOINT leftShoulder
        {
          OFFSET 0.1807663869 1.5087829790000005 0
          CHANNELS 3 Yrotation Xrotation Zrotation
          JOINT leftUpperArm
          {
            OFFSET 0.5985063006419806 0 0
            CHANNELS 3 Yrotation Xrotation Zrotation
            JOINT leftLowerArm
            {
              OFFSET 2.2993332369501065 0 0
              CHANNELS 3 Yrotation Xrotation Zrotation
              JOINT leftHand
              {
                OFFSET 2.395047042602395 0 0
                CHANNELS 3 Yrotation Xrotation Zrotation
                JOINT leftIndexProximal
                {
                  OFFSET 0.5766295810000004 0.04556643899499946 0.17265095988184
                  CHANNELS 3 Yrotation Xrotation Zrotation
                  JOINT leftIndexIntermediate
                  {
                    OFFSET 0.2957229000000008 -0.019352197700001517 -0.007932640616999987
                    CHANNELS 3 Yrotation Xrotation Zrotation
                    JOINT leftIndexDistal
                    {
                      OFFSET 0.19008243099999922 -0.012484908149998475 -0.002786250786000012
                      CHANNELS 3 Yrotation Xrotation Zrotation
                      End Site
                      {
                        OFFSET 0.19008243099999922 -0.012484908149998475 -0.002786250786000012
                      }
                    }
                  }
                }
                JOINT leftMiddleProximal
                {
                  OFFSET 0.5834975091000001 0.0524350405149987 0.02204081888183999
                  CHANNELS 3 Yrotation Xrotation Zrotation
                  JOINT leftMiddleIntermediate
                  {
                    OFFSET 0.33880573540000003 -0.019871473270000717 -0.00000971183179999946
                    CHANNELS 3 Yrotation Xrotation Zrotation
                    JOINT leftMiddleDistal
                    {
                      OFFSET 0.20676022730000088 -0.012221336379999448 0.0001471936708000235
                      CHANNELS 3 Yrotation Xrotation Zrotation
                      End Site
                      {
                        OFFSET 0.20676022730000088 -0.012221336379999448 0.0001471936708000235
                      }
                    }
                  }
                }
                JOINT leftLittleProximal
                {
                  OFFSET 0.5344154683999995 -0.012880921405001189 -0.24414037221816004
                  CHANNELS 3 Yrotation Xrotation Zrotation
                  JOINT leftLittleIntermediate
                  {
                    OFFSET 0.21758961730000093 -0.011650919939999227 0.011893592810000034
                    CHANNELS 3 Yrotation Xrotation Zrotation
                    JOINT leftLittleDistal
                    {
                      OFFSET 0.1475273964999999 -0.008152365682999818 0.006001092492999946
                      CHANNELS 3 Yrotation Xrotation Zrotation
                      End Site
                      {
                        OFFSET 0.1475273964999999 -0.008152365682999818 0.006001092492999946
                      }
                    }
                  }
                }
                JOINT leftRingProximal
                {
                  OFFSET 0.5799399463000003 0.026911854694997794 -0.12150566991816003
                  CHANNELS 3 Yrotation Xrotation Zrotation
                  JOINT leftRingIntermediate
                  {
                    OFFSET 0.26167887460000006 -0.013480186499999602 0.010996293000000053
                    CHANNELS 3 Yrotation Xrotation Zrotation
                    JOINT leftRingDistal
                    {
                      OFFSET 0.17667108799999987 -0.008990287899999228 0.0055541023999999065
                      CHANNELS 3 Yrotation Xrotation Zrotation
                      End Site
                      {
                        OFFSET 0.17667108799999987 -0.008990287899999228 0.0055541023999999065
                      }
                    }
                  }
                }
                JOINT leftThumbProximal
                {
                  OFFSET 0.11018806699999972 -0.09448718900500053 0.17047963138184
                  CHANNELS 3 Yrotation Xrotation Zrotation
                  JOINT leftThumbIntermediate
                  {
                    OFFSET 0.31062601459999983 -0.08126270900000132 0.15443142000000007
                    CHANNELS 3 Yrotation Xrotation Zrotation
                    JOINT leftThumbDistal
                    {
                      OFFSET 0.21627175790000086 -0.08833193599999878 0.018771167799999988
                      CHANNELS 3 Yrotation Xrotation Zrotation
                      End Site
                      {
                        OFFSET 0.21627175790000086 -0.08833193599999878 0.018771167799999988
                      }
                    }
                  }
                }
              }
            }
          }
        }
        JOINT neck
        {
          OFFSET 0 1.5463305265074576 0
          CHANNELS 3 Yrotation Xrotation Zrotation
          JOINT head
          {
            OFFSET 0 0.8456443600000344 0
            CHANNELS 3 Yrotation Xrotation Zrotation
            JOINT leftEye
            {
              OFFSET 0.30408573140000006 0.5104519199999995 0.1276382305
              CHANNELS 3 Yrotation Xrotation Zrotation
              End Site
              {
                OFFSET 0.30408573140000006 0.5104519199999995 0.1276382305
              }
            }
            JOINT rightEye
            {
              OFFSET -0.30409491089999996 0.5104519199999995 0.1276379445
              CHANNELS 3 Yrotation Xrotation Zrotation
              End Site
              {
                OFFSET -0.30409491089999996 0.5104519199999995 0.1276379445
              }
            }
            JOINT jaw
            {
              OFFSET -3.155239131000001e-7 -0.11984121820000082 0.60178107
              CHANNELS 3 Yrotation Xrotation Zrotation
              End Site
              {
                OFFSET -3.155239131000001e-7 -0.11984121820000082 0.60178107
              }
            }
          }
        }
        JOINT rightShoulder
        {
          OFFSET -0.1807303465 1.5087829790000005 0
          CHANNELS 3 Yrotation Xrotation Zrotation
          JOINT rightUpperArm
          {
            OFFSET -0.5985063796536958 0 0
            CHANNELS 3 Yrotation Xrotation Zrotation
            JOINT rightLowerArm
            {
              OFFSET -2.2993322059002854 0 0
              CHANNELS 3 Yrotation Xrotation Zrotation
              JOINT rightHand
              {
                OFFSET -2.395045314457259 0 0
                CHANNELS 3 Yrotation Xrotation Zrotation
                JOINT rightIndexProximal
                {
                  OFFSET -0.5764487688300002 0.0441371204405987 0.17361932004999997
                  CHANNELS 3 Yrotation Xrotation Zrotation
                  JOINT rightIndexIntermediate
                  {
                    OFFSET -0.29573011380000047 -0.01934826376999843 -0.007698921482999974
                    CHANNELS 3 Yrotation Xrotation Zrotation
                    JOINT rightIndexDistal
                    {
                      OFFSET -0.19008373999999884 -0.012503266380000655 -0.0026365778999999897
                      CHANNELS 3 Yrotation Xrotation Zrotation
                      End Site
                      {
                        OFFSET -0.19008373999999884 -0.012503266380000655 -0.0026365778999999897
                      }
                    }
                  }
                }
                JOINT rightMiddleProximal
                {
                  OFFSET -0.5834852037300005 0.05211639405060153 0.02307162440000001
                  CHANNELS 3 Yrotation Xrotation Zrotation
                  JOINT rightMiddleIntermediate
                  {
                    OFFSET -0.33880114510000003 -0.019952774050000954 0.0002455003561999819
                    CHANNELS 3 Yrotation Xrotation Zrotation
                    JOINT rightMiddleDistal
                    {
                      OFFSET -0.20675694929999955 -0.012273788999999091 0.00030209124000002766
                      CHANNELS 3 Yrotation Xrotation Zrotation
                      End Site
                      {
                        OFFSET -0.20675694929999955 -0.012273788999999091 0.00030209124000002766
                      }
                    }
                  }
                }
                JOINT rightLittleProximal
                {
                  OFFSET -0.5346811737299992 -0.011214256288399227 -0.24363941305000003
                  CHANNELS 3 Yrotation Xrotation Zrotation
                  JOINT rightLittleIntermediate
                  {
                    OFFSET -0.21757715980000092 -0.011771559690000988 0.01201554387
                    CHANNELS 3 Yrotation Xrotation Zrotation
                    JOINT rightLittleDistal
                    {
                      OFFSET -0.1475201849000004 -0.00822055339600003 0.006082065407000015
                      CHANNELS 3 Yrotation Xrotation Zrotation
                      End Site
                      {
                        OFFSET -0.1475201849000004 -0.00822055339600003 0.006082065407000015
                      }
                    }
                  }
                }
                JOINT rightRingProximal
                {
                  OFFSET -0.5800810755299999 0.027657985680600072 -0.12066365025000003
                  CHANNELS 3 Yrotation Xrotation Zrotation
                  JOINT rightRingIntermediate
                  {
                    OFFSET -0.26166445029999974 -0.013623118409999302 0.011164098990000045
                    CHANNELS 3 Yrotation Xrotation Zrotation
                    JOINT rightRingDistal
                    {
                      OFFSET -0.17666387530000027 -0.009072900100000503 0.005668185599999959
                      CHANNELS 3 Yrotation Xrotation Zrotation
                      End Site
                      {
                        OFFSET -0.17666387530000027 -0.009072900100000503 0.005668185599999959
                      }
                    }
                  }
                }
                JOINT rightThumbProximal
                {
                  OFFSET -0.10997596379000074 -0.09577489355940072 0.16989765924999997
                  CHANNELS 3 Yrotation Xrotation Zrotation
                  JOINT rightThumbIntermediate
                  {
                    OFFSET -0.31036620999999986 -0.08229339117999834 0.15440884469999996
                    CHANNELS 3 Yrotation Xrotation Zrotation
                    JOINT rightThumbDistal
                    {
                      OFFSET -0.21631306399999906 -0.08825326400000111 0.018656797720000014
                      CHANNELS 3 Yrotation Xrotation Zrotation
                      End Site
                      {
                        OFFSET -0.21631306399999906 -0.08825326400000111 0.018656797720000014
                      }
                    }
                  }
                }
              }
            }
          }
        }
      }
    }
  }
}
MOTION
Frames: 7
Frame Time: 0.03333333333333333
0 11.682712981546562 0 0 0 0 0 0 -5.826343164929014 -0.3712483961610101 -3.6333298826370974 5.838118207697276 0 0 0 0 0 0 0 0 5.826343164929014 0.3712483961610101 -3.6333298826370974 -5.838118207697276 0 0 0 0 0 0 0 -4.610651315171937 0 0 3.0831277533083026 0 0 0 0 0 1.5275236235667615 0 0 0 0 0 0 0 0 0 0 0 0 0 0 0 0 0 0 0 0 0 0 0 0 0 0 0 0 0 0 0 0 0 0 0 0 0 0 0 0 0 0 0 0 0 0 0 0 0 0 0 0 0 0 0 0 1.5275236235667615 0 0 0 0 0 0 0 0 0 0 0 0 0 0 1.5275236235667615 0 0 0 0 0 0 0 0 0 0 0 0 0 0 0 0 0 0 0 0 0 0 0 0 0 0 0 0 0 0 0 0 0 0 0 0 0 0 0 0 0 0 0 0 0 0 0 0 0 0 0 0 0 0 0
-2.816390670878866 1.1909062945513895 -1.0879410887643404 51.18076932730025 2.794019184990774 51.176596235502814 27.827618271972735 -14.175100951043126 -14.07181882480771 3.2220140413155174 41.0787283484002 8.68447081403587 -3.831977384230591 2.177564380995937 2.3365521948643275 0 0 0 -4.75761475173524 -34.50453445639067 -11.697324109340649 -2.6895908834735875 19.04332014681759 -2.6179268159683797 -1.1014585564008035 4.966584298894302 9.672488891419187 0 0 0 1.7501172764767534 0.47994438277623763 -13.46399187797489 -13.092434944736333 15.032724082860458 -14.186043670709427 0 0 0 -31.005896577165128 0.6151495402410477 -8.56028433724215 18.565205370268224 -31.159264554170395 -25.746063044432095 -31.81002575178473 2.9007854234904964 -2.625048153404776 -14.45250900980074 7.639376154235785 25.17335307383056 0 0 0 0 0 0 0 0 0 0 0 0 0 0 0 0 0 0 0 0 0 0 0 0 0 0 0 0 0 0 0 0 0 0 0 0 0 0 0 0 0 0 0 0 0 -7.264145461262167 -0.4406454336884981 -10.62225315276311 14.637437035668333 -0.6560928547442704 -0.7250528254411693 0 0 0 0 0 0 0 0 0 -11.253545754904279 4.079239482904566 -3.0975882987474126 15.803527188699064 14.925594474770765 2.533470280379996 24.592092557983825 1.876304001816069 -23.353493900761034 1.8979523151995374 5.184806650493828 2.974602978231386 0 0 0 0 0 0 0 0 0 0 0 0 0 0 0 0 0 0 0 0 0 0 0 0 0 0 0 0 0 0 0 0 0 0 0 0 0 0 0 0 0 0 0 0 0
-5.632781341757732 -9.300900392443781 -2.1758821775286807 90.00575692191885 -32.991735248575964 89.9953979088504 59.340028785256365 -22.458542499565596 -28.949551005525034 51.02271713453965 83.63585257439549 55.97324743354 -7.58064206662776 4.504788408991401 4.527358339247303 0 0 0 11.597379997925087 -68.02153585939226 -44.05286761939074 -4.900681200591248 41.84174632721761 -0.12204383484070203 -1.353561267487973 10.047401971459562 19.35977883768838 0 0 0 -8.689018307825771 9.490870734534512 -18.780584769368414 -29.704060766737182 22.991860303380065 -31.749665588497653 0 0 0 -61.6140830626048 -4.55667471871155 -15.446818038374072 61.000214491922286 -45.82984445713498 -73.65927197146661 -63.77964891022968 3.977215900399035 -6.392321639884417 -24.746583655223994 20.555584482491025 48.78699074140204 0 0 0 0 0 0 0 0 0 0 0 0 0 0 0 0 0 0 0 0 0 0 0 0 0 0 0 0 0 0 0 0 0 0 0 0 0 0 0 0 0 0 0 0 0 -14.053996533108235 -3.696725448944866 -20.930022051969765 29.28407217594758 -1.1076021936346439 -1.5924961143127196 0 0 0 0 0 0 0 0 0 -22.666558231470017 5.973150155594071 -6.6462092977818585 33.98588683228497 28.480458711638843 9.804221696541616 46.835934530518976 12.978631639855024 -44.19074774266926 4.089509237116995 10.260402770401289 6.158084216636952 0 0 0 0 0 0 0 0 0 0 0 0 0 0 0 0 0 0 0 0 0 0 0 0 0 0 0 0 0 0 0 0 0 0 0 0 0 0 0 0 0 0 0 0 0
-5.632781341757732 -9.300900392443781 -2.1758821775286807 90.00575692191885 -32.991735248575964 89.9953979088504 59.340028785256365 -22.458542499565596 -28.949551005525034 51.02276803004031 83.63585257439549 55.9732995378973 -7.58064206662776 4.504788408991401 4.527358339247303 0 0 0 11.597382032471588 -68.02154498436666 -44.05287068513202 -4.900681200591248 41.84174632721761 -0.1220433603178413 -1.353561267487973 10.047401971459562 19.35977883768838 0 0 0 -8.689018307825771 9.490870734534512 -18.780584769368414 -29.70406421617747 22.991860303380065 -31.7496671658216 0 0 0 -61.61408770532473 -4.556674290471161 -15.446818038374072 61.00022092192665 -45.82984445713498 -73.65927667465726 -63.528553615234685 4.004940278543479 -6.403775941896994 -24.746583655223994 20.555584482491025 48.78699074140204 0 0 0 0 0 0 0 0 0 0 0 0 0 0 0 0 0 0 0 0 0 0 0 0 0 0 0 0 0 0 0 0 0 0 0 0 0 0 0 0 0 0 0 0 0 -14.059856079604327 -3.684766598575334 -20.766716077680062 29.28407217594758 -1.1076021936346439 -1.5924961143127196 0 0 0 0 0 0 0 0 0 -22.666558231470017 5.973150155594071 -6.6462092977818585 33.98588683228497 28.480458711638843 9.804221696541616 46.835934530518976 12.97863251601105 -44.19075269846179 4.089509237116995 10.260402770401289 6.158084216636952 0 0 0 0 0 0 0 0 0 0 0 0 0 0 0 0 0 0 0 0 0 0 0 0 0 0 0 0 0 0 0 0 0 0 0 0 0 0 0 0 0 0 0 0 0
-5.632781341757732 -9.300900392443781 -2.1758821775286807 90.00575692191885 -32.991735248575964 89.9953979088504 59.340028785256365 -22.458542499565596 -28.949551005525034 51.02282191947369 83.63585257439549 55.97335108318168 -7.58064206662776 4.504788408991401 4.527358339247303 0 0 0 11.597386101565492 -68.02154498436666 -44.05287702992751 -4.900681200591248 41.84174632721761 -0.12204289474824209 -1.353561267487973 10.047401971459562 19.35977883768838 0 0 0 -8.689018307825771 9.490870734534512 -18.780584769368414 -29.704065827336795 22.991860303380065 -31.749668743145488 0 0 0 -61.614090719333696 -4.556673862230772 -15.44681968946013 61.00022520859666 -45.82984445713498 -73.65928255364591 -63.27745536344675 4.032714809806464 -6.415108879371735 -24.746583655223994 20.555586306146843 48.78699074140204 0 0 0 0 0 0 0 0 0 0 0 0 0 0 0 0 0 0 0 0 0 0 0 0 0 0 0 0 0 0 0 0 0 0 0 0 0 0 0 0 0 0 0 0 0 -14.065681439403793 -3.6727912261003404 -20.603414614521352 29.28407217594758 -1.1076021936346439 -1.5924961143127196 0 0 0 0 0 0 0 0 0 -22.666558231470017 5.973150155594071 -6.6462092977818585 33.98588683228497 28.480458711638843 9.804221696541616 46.83593948426172 12.97863251601105 -44.19075269846179 4.089509237116995 10.260402770401289 6.158085079279108 0 0 0 0 0 0 0 0 0 0 0 0 0 0 0 0 0 0 0 0 0 0 0 0 0 0 0 0 0 0 0 0 0 0 0 0 0 0 0 0 0 0 0 0 0
-5.632781341757732 -9.300900392443781 -2.1758821775286807 90.00575692191885 -32.991735248575964 89.9953979088504 59.340028785256365 -22.458542499565596 -28.94954938871731 51.02277045244707 83.63585257439549 55.9733016929109 -7.58064206662776 4.504788408991401 4.527357912373758 0 0 0 11.597382032471588 -68.02154498436666 -44.05287068513202 -4.900681379894172 41.84174632721761 -0.1220436101980538 -1.353561267487973 10.047401104388298 19.35977883768838 0 0 0 -8.689018307825771 9.490870734534512 -18.780584769368414 -29.70406421617747 22.991860303380065 -31.7496671658216 0 0 0 -61.61408770532473 -4.556674290471161 -15.446818038374072 61.00021211580349 -45.82984445713498 -73.65927059252749 -63.02622966274443 4.0605514887504075 -6.426325979787437 -24.746582128439016 20.555582658835224 48.78698799765599 0 0 0 0 0 0 0 0 0 0 0 0 0 0 0 0 0 0 0 0 0 0 0 0 0 0 0 0 0 0 0 0 0 0 0 0 0 0 0 0 0 0 0 0 0 -14.071473446231352 -3.660796337345272 -20.440081475249606 29.28407217594758 -1.1076021936346439 -1.5924961143127196 0 0 0 0 0 0 0 0 0 -22.666558231470017 5.973150155594071 -6.6462092977818585 33.98588683228497 28.480458711638843 9.804221696541616 46.835934530518976 12.97863251601105 -44.19075269846179 4.089509237116995 10.260402770401289 6.158085079279108 0 0 0 0 0 0 0 0 0 0 0 0 0 0 0 0 0 0 0 0 0 0 0 0 0 0 0 0 0 0 0 0 0 0 0 0 0 0 0 0 0 0 0 0 0
-5.632781341757732 -9.300900392443781 -2.1758821775286807 90.00575692191885 -32.991735248575964 89.9953979088504 59.34002719586368 -22.458540651883027 -28.949547600015404 51.022718985504156 83.63585257439549 55.97325389858431 -7.580641217693383 4.504788408991401 4.527357485500214 0 0 0 11.597379997925087 -68.02153585939226 -44.05286761939074 -4.900681950809399 41.84174174313764 -0.12204433541217914 -1.353561267487973 10.047401104388298 19.35977883768838 0 0 0 -8.689018307825771 9.490870734534512 -18.780584769368414 -29.704060766737182 22.991862158279964 -31.749665588497653 0 0 0 -61.6140830626048 -4.55667471871155 -15.446818038374072 61.000201166345555 -45.82984445713498 -73.65925863140839 -62.775000077133704 4.088437061100601 -6.43742128820853 -24.746582128439016 20.555579011523697 48.78698799765599 0 0 0 0 0 0 0 0 0 0 0 0 0 0 0 0 0 0 0 0 0 0 0 0 0 0 0 0 0 0 0 0 0 0 0 0 0 0 0 0 0 0 0 0 0 -14.077229608266734 -3.6487849268473678 -20.276752964819863 29.28407217594758 -1.1076021936346439 -1.5924961143127196 0 0 0 0 0 0 0 0 0 -22.666558231470017 5.973150155594071 -6.6462092977818585 33.98588683228497 28.480458711638843 9.804221696541616 46.835934530518976 12.978631639855024 -44.19074774266926 4.089509237116995 10.260402770401289 6.158084216636952 0 0 0 0 0 0 0 0 0 0 0 0 0 0 0 0 0 0 0 0 0 0 0 0 0 0 0 0 0 0 0 0 0 0 0 0 0 0 0 0 0 0 0 0 0
